<svg xmlns="http://www.w3.org/2000/svg" xml:space="preserve" id="图层_1" x="0" y="0" viewBox="0 0 1710 930"><style>.st0{fill:none;stroke:#000;stroke-width:2;stroke-linecap:round;stroke-linejoin:round}.st1{font-family:&quot;Arial&quot;}.st2{font-size:14px}.st3{fill:red;stroke:red}</style><path d="M1246.8 886.9v28.5" class="st0" shape-rendering="geometricPrecision" vector-effect="non-scaling-stroke"/><text class="st1 st2" transform="translate(1148.8 55)">SZJAPO_07183</text><path d="M1199.4 65v20-20z" class="st3"/><text class="st1 st2" transform="translate(1348.4 55)">SZJAPO_04567</text><path d="M1399 65v20-20z" class="st3"/><text class="st1 st2" transform="translate(1127.7 202)">SZVERS_03420</text><path d="M1179.1 165v20-20z" class="st3"/><text class="st1 st2" transform="translate(1308.4 202)">SZVERS_03728</text><path d="M1359.7 165v20-20z" class="st3"/><text class="st1 st2" transform="translate(1049.4 302)">SZPOCN_03352</text><path d="M1101.9 265v20-20z" class="st3"/><text class="st1 st2" transform="translate(1058 402)">SPBC3E7.02c</text><path d="M1102.7 365v20-20z" class="st3"/><text class="st1 st2" transform="translate(471 493)">SZCRYO_07108</text><path d="M523.5 465v20-20z" class="st3"/><text class="st1 st2" transform="translate(471.3 501.4)">SZCRYO_07109</text><path d="M523.7 465v20-20z" class="st3"/><text class="st1 st2" transform="translate(476.6 509.8)">SZCRYO_07116</text><path d="M528.5 465v20-20z" class="st3"/><text class="st1 st2" transform="translate(477 518.2)">SZCRYO_07118</text><path d="M528.8 465v20-20z" class="st3"/><text class="st1 st2" transform="translate(477.2 526.6)">SZCRYO_07119</text><path d="M529 465v20-20z" class="st3"/><text class="st1 st2" transform="translate(585 527)">SZCRYO_07123</text><path d="M637.4 465v20-20z" class="st3"/><text class="st1 st2" transform="translate(673.6 535.4)">SZCRYO_07134</text><path d="M726 465v20-20z" class="st3"/><text class="st1 st2" transform="translate(702 543.8)">SZCRYO_07138</text><path d="M754.4 465v20-20z" class="st3"/><text class="st1 st2" transform="translate(764.7 509.2)">SZCRYO_07164</text><path d="M817.1 465v20-20z" class="st3"/><text class="st1 st2" transform="translate(767.5 517.6)">SZCRYO_07178</text><path d="M819.8 465v20-20z" class="st3"/><text class="st1 st2" transform="translate(772.4 526)">SZCRYO_07200</text><path d="M824.7 465v20-20z" class="st3"/><text class="st1 st2" transform="translate(897.4 510.4)">SZCRYO_05759</text><path d="M949.8 465v20-20z" class="st3"/><text class="st1 st2" transform="translate(898.8 518.8)">SZCRYO_07216</text><path d="M951.2 465v20-20z" class="st3"/><text class="st1 st2" transform="translate(902.3 527.2)">SZCRYO_07217</text><path d="M954.7 465v20-20z" class="st3"/><text class="st1 st2" transform="translate(902.5 535.6)">SZCRYO_07218</text><path d="M954.8 465v20-20z" class="st3"/><text class="st1 st2" transform="translate(1243 519)">SZCRYO_07260</text><path d="M1295.4 465v20-20z" class="st3"/><text class="st1 st2" transform="translate(1243.2 527.4)">SZCRYO_07261</text><path d="M1295.6 465v20-20z" class="st3"/><text class="st1 st2" transform="translate(1247.7 535.8)">SZCRYO_07263</text><path d="M1300.1 465v20-20z" class="st3"/><text class="st1 st2" transform="translate(1248 544.2)">SZCRYO_07264</text><path d="M1300.3 465v20-20z" class="st3"/><text class="st1 st2" transform="translate(1383 517.6)">SZCRYO_07286</text><path d="M1435.4 465v20-20z" class="st3"/><text class="st1 st2" transform="translate(1384.4 527)">SZCRYO_07294</text><path d="M1436.7 465v20-20z" class="st3"/><text class="st1 st2" transform="translate(1397.4 535.4)">SZCRYO_07334</text><path d="M1449.8 465v20-20z" class="st3"/><text class="st1 st2" transform="translate(1399.8 543.8)">SZCRYO_07341</text><path d="M1452.2 465v20-20z" class="st3"/><text class="st1 st2" transform="translate(1401.6 552.2)">SZCRYO_07346</text><path d="M1454 465v20-20z" class="st3"/><text class="st1 st2" transform="translate(756 593)">SZOCTO_07131</text><path d="M808.4 565v20-20z" class="st3"/><text class="st1 st2" transform="translate(1100.8 601.4)">SZOCTO_01107</text><path d="M1152.6 565v20-20z" class="st3"/><text class="st1 st2" transform="translate(1108 609.8)">SZOCTO_07165</text><path d="M1160.4 565v20-20z" class="st3"/><text class="st1 st2" transform="translate(1138.4 618.2)">SZOCTO_07172</text><path d="M1190.8 565v20-20z" class="st3"/><text class="st1 st2" transform="translate(1375.3 626.6)">SZOCTO_07187</text><path d="M1427.7 565v20-20z" class="st3"/><text class="st1 st2" transform="translate(1377.2 635)">SZOCTO_07194</text><path d="M1429.6 565v20-20z" class="st3"/><text class="st1 st2" transform="translate(1383.6 643.4)">SZOCTO_07203</text><path d="M1436 565v20-20z" class="st3"/><text class="st1 st2" transform="translate(1388.8 653.8)">SZOCTO_06531</text><path d="M1441.1 565v20-20z" class="st3"/><text class="st1 st2" transform="translate(794.2 693)">SZLIND_02119</text><path d="M841.9 665v20-20z" class="st3"/><text class="st1 st2" transform="translate(822.8 701.4)">SZLIND_02154</text><path d="M871.1 665v20-20z" class="st3"/><text class="st1 st2" transform="translate(1102.5 709.8)">SZLIND_03575</text><path d="M1150.8 665v20-20z" class="st3"/><text class="st1 st2" transform="translate(1109 718.2)">SZLIND_03601</text><path d="M1157.1 665v20-20z" class="st3"/><text class="st1 st2" transform="translate(1376.6 726.6)">SZLIND_04828</text><path d="M1424.9 665v20-20z" class="st3"/><text class="st1 st2" transform="translate(1378 735)">SZLIND_04833</text><path d="M1426.2 665v20-20z" class="st3"/><text class="st1 st2" transform="translate(1384.3 743.4)">SZLIND_04855</text><path d="M1432.5 665v20-20z" class="st3"/><text class="st1 st2" transform="translate(1385.8 751.8)">SZLIND_04861</text><path d="M1434 665v20-20z" class="st3"/><text class="st1 st2" transform="translate(777.8 793)">SZOMCA_02134</text><path d="M831.1 765v20-20z" class="st3"/><text class="st1 st2" transform="translate(782.1 801.4)">SZOMCA_02150</text><path d="M835.4 765v20-20z" class="st3"/><text class="st1 st2" transform="translate(817.5 809.8)">SZOMCA_02194</text><path d="M870.8 765v20-20z" class="st3"/><text class="st1 st2" transform="translate(1077 818.2)">SZOMCA_03504</text><path d="M1130.3 765v20-20z" class="st3"/><text class="st1 st2" transform="translate(1109.3 826.6)">SZOMCA_03662</text><path d="M1162.6 765v20-20z" class="st3"/><text class="st1 st2" transform="translate(1111.6 835)">SZOMCA_03671</text><path d="M1164.9 765v20-20z" class="st3"/><text class="st1 st2" transform="translate(1382.2 822.4)">SZOMCA_04913</text><path d="M1435.5 765v20-20z" class="st3"/><text class="st1 st2" transform="translate(1385.8 830.8)">SZOMCA_04934</text><path d="M1439.1 765v20-20z" class="st3"/><text class="st1 st2" transform="translate(1389.1 839.2)">SZOMCA_04947</text><path d="M1442.4 765v20-20z" class="st3"/><text class="st1 st2" transform="translate(1393.5 847.6)">SZOMCA_04963</text><path d="M1446.8 765v20-20z" class="st3"/><text class="st1 st2" transform="translate(371.3 893)">SOMG_00003</text><path d="M416 865v20-20z" class="st3"/><text class="st1 st2" transform="translate(371.6 901.4)">SOMG_00005</text><path d="M416.4 865v20-20z" class="st3"/><text class="st1 st2" transform="translate(374.4 909.8)">SOMG_00020</text><path d="M419.1 865v20-20z" class="st3"/><text class="st1 st2" transform="translate(377.4 918.2)">SOMG_00037</text><path d="M422.1 865v20-20z" class="st3"/><text class="st1 st2" transform="translate(381 926.6)">SOMG_00060</text><path d="M425.8 865v20-20z" class="st3"/><text class="st1 st2" transform="translate(455.6 910)">SOMG_00450</text><path d="M500.4 865v20-20z" class="st3"/><text class="st1 st2" transform="translate(508.3 926.4)">SOMG_00734</text><path d="M553.1 865v20-20z" class="st3"/><text class="st1 st2" transform="translate(851.3 902.8)">SOMG_02510</text><path d="M896.1 865v20-20z" class="st3"/><text class="st1 st2" transform="translate(851.7 911.2)">SOMG_02512</text><path d="M896.4 865v20-20z" class="st3"/><text class="st1 st2" transform="translate(876.6 919.6)">SOMG_02521</text><path d="M921.4 865v20-20z" class="st3"/><text class="st1 st2" transform="translate(883 928)">SOMG_02557</text><path d="M927.7 865v20-20z" class="st3"/><text class="st1 st2" transform="translate(1175.3 909.4)">SOMG_04076</text><path d="M1220 865v20-20z" class="st3"/><text class="st1 st2" transform="translate(1175.7 917.8)">SOMG_04078</text><path d="M1220.4 865v20-20z" class="st3"/><text class="st1 st2" transform="translate(1202 926.2)">SOMG_04082</text><path d="M1246.8 865v20-20z" class="st3"/><path d="M1199.4 62v-3M1399 62v-3M1179.1 188v7M1359.7 188v7M1101.9 288v7M1102.7 388v7M523.5 488v-2M523.7 488v6.4M528.5 488v3.8M528.9 488v12.2M529.1 488v20.6M637.4 488v22.3M726 488v28.7M754.4 488v35.1M817.1 488v10.2M819.9 488v11.8M824.8 488v13.4M1295.4 488v13.7M1295.6 488v14.7M1300.1 488v15.7M1300.3 488v16.7M1435.4 488v17.7M1436.8 488v18.8M1449.8 488v19.8M1452.2 488v20.8M1454 488v21.8M808.4 588v-2M1152.6 588v6.4M1160.4 588v3.8M1190.8 588v12.2M1427.7 588v20.6M1429.6 588v29M1436 588v37.4M1441.2 588v45.8M841.9 688v-2M871.1 688v6.4M1150.8 688v3.8M1157.2 688v12.2M1424.9 688v20.6M1426.2 688v29M1432.5 688v37.4M1434.1 688v45.8M831.1 788v-2M835.4 788v6.4M870.8 788v3.8M1130.3 788v12.2M1162.6 788v20.6M1164.9 788v29M1435.5 788v13.7M1439.1 788v16.8M1442.4 788v19.8M1446.8 788v22.9M416 888v-2M416.4 888v6.4M419.1 888v3.8M422.1 888v12.2M425.8 888v20.6M500.4 888v6.4M553.1 888v24.6M896.1 888v4.5M896.4 888v5.3M921.4 888v6.1M927.7 888v7M1220 888v7.8M949.9 487.7V499M951.2 487.7v12.5M954.8 487.7v13.7" class="st0" shape-rendering="geometricPrecision" vector-effect="non-scaling-stroke"/></svg>